<?xml version="1.0" encoding="utf-8"?>
<!-- Generator: Adobe Illustrator 25.0.1, SVG Export Plug-In . SVG Version: 6.00 Build 0)  -->
<svg version="1.1" id="Layer_1" xmlns="http://www.w3.org/2000/svg" xmlns:xlink="http://www.w3.org/1999/xlink" x="0px" y="0px"
	 viewBox="0 0 332.5 110.3" style="enable-background:new 0 0 332.5 110.3;" xml:space="preserve">
<style type="text/css">
	.st0{opacity:0.6;fill:#3C92B1;enable-background:new    ;}
	.st1{opacity:0.8;fill:#3C92B1;enable-background:new    ;}
	.st2{fill:#3C92B1;}
	.st3{opacity:0.4;fill:#3C92B1;enable-background:new    ;}
</style>
<g id="Group_12" transform="translate(-75.77 -600)">
	<g id="Group_1" transform="translate(-748.774 69.042)">
		
			<rect id="Rectangle_4" x="853.1" y="559.5" transform="matrix(0.7071 -0.7071 0.7071 0.7071 -152.214 782.6698)" class="st0" width="31.2" height="31.2"/>
		<path id="Rectangle_11" class="st1" d="M846.6,575.1l22.1,22.1l-22.1,22.1L827.4,600c-1.6-1.6-1.6-4.1,0-5.7L846.6,575.1z"/>
		
			<rect id="Rectangle_7" x="897.2" y="559.5" transform="matrix(0.7071 -0.7071 0.7071 0.7071 -139.293 813.8638)" class="st0" width="31.2" height="31.2"/>
		
			<rect id="Rectangle_9" x="875.1" y="581.5" transform="matrix(0.7071 -0.7071 0.7071 0.7071 -161.3503 804.7268)" class="st1" width="31.2" height="31.2"/>
		<path id="Rectangle_13" class="st2" d="M912.8,597.1l22.1,22.1l-19.2,19.2c-1.6,1.6-4.1,1.6-5.7,0l-19.2-19.2L912.8,597.1z"/>
		<path id="Rectangle_14" class="st2" d="M868.7,597.1l22.1,22.1l-19.2,19.2c-1.6,1.6-4.1,1.6-5.7,0l-19.2-19.2L868.7,597.1z"/>
		<path id="Rectangle_15" class="st2" d="M956.9,597.1l22.1,22.1l-19.2,19.2c-1.6,1.6-4.1,1.6-5.7,0l-19.2-19.2L956.9,597.1z"/>
		
			<rect id="Rectangle_10" x="919.2" y="581.5" transform="matrix(0.7071 -0.7071 0.7071 0.7071 -148.4294 835.9208)" class="st1" width="31.2" height="31.2"/>
		<path id="Rectangle_12" class="st1" d="M978.9,575.1l19.2,19.2c1.6,1.6,1.6,4.1,0,5.7l-19.2,19.2l-22.1-22.1L978.9,575.1z"/>
		
			<rect id="Rectangle_8" x="941.3" y="559.5" transform="matrix(0.7071 -0.7071 0.7071 0.7071 -126.3721 845.0578)" class="st0" width="31.2" height="31.2"/>
		<path id="Rectangle_5" class="st3" d="M892.8,533.1l19.9,19.9l-22.1,22.1L868.7,553l19.9-19.9
			C889.8,531.9,891.7,531.9,892.8,533.1z"/>
		<path id="Rectangle_6" class="st3" d="M937,533.1l19.9,19.9l-22.1,22.1L912.8,553l19.9-19.9C933.9,531.9,935.8,531.9,937,533.1z"
			/>
	</g>
</g>
</svg>
